<svg width="438" height="104" xmlns="http://www.w3.org/2000/svg" xmlns:xlink="http://www.w3.org/1999/xlink" overflow="hidden"><defs><clipPath id="clip0"><rect x="432" y="121" width="438" height="104"/></clipPath></defs><g clip-path="url(#clip0)" transform="translate(-432 -121)"><path d="M-148.94 226.221C-147.567 227.947-150.589 228.924-151.809 228.504-155.115 227.366-155.166 222.96-153.507 220.483-150.538 216.053-144.156 216.22-140.334 219.371-134.725 223.995-135.132 232.583-139.807 237.696-146.039 244.511-156.899 243.852-163.284 237.637-171.319 229.816-170.402 216.656-162.64 209.008-153.239 199.746-137.764 200.924-128.859 210.238-118.366 221.213-119.806 239.012-130.674 249.171-143.222 260.899-163.349 259.194-174.759 246.77-187.724 232.653-185.755 210.193-171.773 197.533-156.088 183.331-131.293 185.564-117.384 201.105-101.943 218.357-104.441 245.489-121.541 260.646" stroke="#000000" stroke-width="0.520096" fill="#000000" fill-rule="evenodd" fill-opacity="0.027451" transform="matrix(1.01966 0 0 1 628.238 -51.2666)"/><text font-family="Ink Free,Ink Free_MSFontService,sans-serif" font-weight="400" font-size="47" transform="matrix(1.00296 0 0 0.69827 540.14 161)">YET BLOG <tspan font-size="47" x="0" y="58.7165">ANOTHER</tspan></text><path d="M-148.94 226.221C-147.567 227.947-150.589 228.924-151.809 228.504-155.115 227.366-155.166 222.96-153.507 220.483-150.538 216.053-144.156 216.22-140.334 219.371-134.725 223.995-135.132 232.583-139.807 237.696-146.039 244.511-156.899 243.852-163.284 237.637-171.319 229.816-170.402 216.656-162.64 209.008-153.239 199.746-137.764 200.924-128.859 210.238-118.366 221.213-119.806 239.012-130.674 249.171-143.222 260.899-163.349 259.194-174.759 246.77-187.724 232.653-185.755 210.193-171.773 197.533-156.088 183.331-131.293 185.564-117.384 201.105-101.943 218.357-104.441 245.489-121.541 260.646" stroke="#000000" stroke-width="0.520096" fill="#000000" fill-rule="evenodd" fill-opacity="0.027451" transform="matrix(-1.01966 0 0 -1 672.04 395.896)"/><path d="M42.9842 119.496 487.44 119.496 487.44 224.377 42.9842 224.377Z" fill="#000000" fill-opacity="0.027451" transform="matrix(1.00843 0 0 1 384.994 1.29351)"/></g></svg>